
<svg width="32" height="32" viewBox="0 0 32 32" fill="none" xmlns="http://www.w3.org/2000/svg">
  <!-- Background circle -->
  <circle cx="16" cy="16" r="15" fill="#DC2626" stroke="#991B1B" stroke-width="2"/>
  
  <!-- Stone/tile layered design -->
  <rect x="6" y="10" width="20" height="3" fill="#FFFFFF" rx="1"/>
  <rect x="6" y="15" width="20" height="3" fill="#FECACA" rx="1"/>
  <rect x="6" y="20" width="20" height="3" fill="#FFFFFF" rx="1"/>
  
  <!-- Genesis "G" letter -->
  <path d="M12 8 C10 8 8 10 8 12 C8 14 10 16 12 16 L16 16 L16 14 L12 14 C11 14 10 13 10 12 C10 11 11 10 12 10 L16 10 L16 8 Z" fill="#FFFFFF"/>
  
  <!-- Plus symbol for "& More" -->
  <path d="M22 10 L22 12 L24 12 L24 14 L22 14 L22 16 L20 16 L20 14 L18 14 L18 12 L20 12 L20 10 Z" fill="#FFFFFF"/>
</svg>
